STARTFONT 2.1
FONT jis.jis7e00.16
SIZE 16 72 72
FONTBOUNDINGBOX 16 16 0 -2
STARTPROPERTIES 4
FONT_DESCENT 2
FONT_ASCENT 14
DEFAULT_CHAR 1
COPYRIGHT "Copyright (c) 1992 AT&T - All rights reserved."
ENDPROPERTIES
CHARS 131
STARTCHAR ch-1
ENCODING 1
SWIDTH 1000 0
DWIDTH 16 0
BBX 16 16 0 -2
BITMAP
1000
31fc
6004
c5fc
6c04
1bff
3040
64a2
fd34
1458
1090
5538
5454
d492
9111
1060
ENDCHAR
STARTCHAR ch-4
ENCODING 4
SWIDTH 1000 0
DWIDTH 16 0
BBX 16 16 0 -2
BITMAP
1000
31fe
6122
c5fe
6d22
1922
31fe
6420
fdfe
1522
11fe
5522
5522
d5fe
9021
101f
ENDCHAR
STARTCHAR ch-5
ENCODING 5
SWIDTH 1000 0
DWIDTH 16 0
BBX 16 16 0 -2
BITMAP
100a
3009
2008
cbff
5a08
32e8
2209
4a49
fbfb
2aaa
22ae
aae4
aa55
aa8d
2217
2462
ENDCHAR
STARTCHAR ch-9
ENCODING 9
SWIDTH 1000 0
DWIDTH 16 0
BBX 16 16 0 -2
BITMAP
1000
33ff
2084
c884
5908
314a
23ad
4800
fbff
2800
21fe
a902
a9fe
a902
2102
21fe
ENDCHAR
STARTCHAR ch-10
ENCODING 10
SWIDTH 1000 0
DWIDTH 16 0
BBX 16 16 0 -2
BITMAP
1104
318c
2088
c800
5bfe
3088
2088
498c
f904
2bfe
2154
a954
a954
a954
27ff
2000
ENDCHAR
STARTCHAR ch-11
ENCODING 11
SWIDTH 1000 0
DWIDTH 16 0
BBX 16 16 0 -2
BITMAP
1008
3210
237e
c942
5842
3042
207e
4b40
f940
297e
2142
a942
a942
ab7e
2280
267f
ENDCHAR
STARTCHAR ch-18
ENCODING 18
SWIDTH 1000 0
DWIDTH 16 0
BBX 16 16 0 -2
BITMAP
1104
3088
23fe
c820
5820
31fc
2020
4820
fbfe
2840
2080
a9fe
ab10
a810
2010
21ff
ENDCHAR
STARTCHAR ch-27
ENCODING 27
SWIDTH 1000 0
DWIDTH 16 0
BBX 16 16 0 -2
BITMAP
1014
3012
61ff
c410
6cfe
1892
30fe
6492
fcfe
1404
11ff
5444
5664
d224
9004
101c
ENDCHAR
STARTCHAR ch-30
ENCODING 30
SWIDTH 1000 0
DWIDTH 16 0
BBX 16 16 0 -2
BITMAP
1010
3010
61ff
c400
6c7c
1844
307c
6400
fdff
1501
117d
5545
5545
d57d
9101
1103
ENDCHAR
STARTCHAR ch-31
ENCODING 31
SWIDTH 1000 0
DWIDTH 16 0
BBX 16 16 0 -2
BITMAP
1000
31ff
2100
c97e
5900
31ff
2152
4954
f948
2a64
20c3
a804
abff
a884
20c4
205c
ENDCHAR
STARTCHAR ch-33
ENCODING 33
SWIDTH 1000 0
DWIDTH 16 0
BBX 16 16 0 -2
BITMAP
1010
3010
61ff
c501
6c10
19ff
3082
6444
fdff
1410
1010
54fe
5610
d210
9010
1010
ENDCHAR
STARTCHAR ch-34
ENCODING 34
SWIDTH 1000 0
DWIDTH 16 0
BBX 16 16 0 -2
BITMAP
0124
78a8
4820
49fe
4848
7bff
4884
4922
4ac9
7850
4824
49fe
4822
48a8
c9ac
9b26
ENDCHAR
STARTCHAR ch-35
ENCODING 35
SWIDTH 1000 0
DWIDTH 16 0
BBX 16 16 0 -2
BITMAP
3e07
a27c
be10
a230
a264
be2c
a218
a232
be7f
8009
ff88
082a
2a2a
6b6b
c949
0808
ENDCHAR
STARTCHAR ch-38
ENCODING 38
SWIDTH 1000 0
DWIDTH 16 0
BBX 16 16 0 -2
BITMAP
2122
2122
4314
5214
967f
6108
2108
4b48
fa48
264e
2248
b248
aa48
a268
2258
228f
ENDCHAR
STARTCHAR ch-43
ENCODING 43
SWIDTH 1000 0
DWIDTH 16 0
BBX 16 16 0 -2
BITMAP
1010
321e
2322
c954
5808
3014
2063
4b08
f93e
2908
213e
a908
a97f
ab08
2280
267f
ENDCHAR
STARTCHAR ch-46
ENCODING 46
SWIDTH 1000 0
DWIDTH 16 0
BBX 16 16 0 -2
BITMAP
2020
2020
43fe
5202
9282
60ff
2088
4990
f93e
2b22
2122
b13e
a922
a922
2122
213e
ENDCHAR
STARTCHAR ch-49
ENCODING 49
SWIDTH 1000 0
DWIDTH 16 0
BBX 16 16 0 -2
BITMAP
2122
2122
4322
5255
9655
6100
2108
4b08
fa48
264e
2248
b248
aa48
a268
2258
228f
ENDCHAR
STARTCHAR ch-50
ENCODING 50
SWIDTH 1000 0
DWIDTH 16 0
BBX 16 16 0 -2
BITMAP
1000
30fe
6092
c4fe
6c92
18fe
3010
6424
fe48
1232
11ff
5411
5654
d2d6
9193
1010
ENDCHAR
STARTCHAR ch-53
ENCODING 53
SWIDTH 1000 0
DWIDTH 16 0
BBX 16 16 0 -2
BITMAP
10fc
3084
20fc
c884
58fc
3000
23ff
4a49
fbff
2800
23fe
a884
a848
a830
20ec
2387
ENDCHAR
STARTCHAR ch-55
ENCODING 55
SWIDTH 1000 0
DWIDTH 16 0
BBX 16 16 0 -2
BITMAP
1020
31fe
2122
cbff
5922
31fe
2020
49fe
f922
29fe
2040
abff
a884
a9e8
203c
21e6
ENDCHAR
STARTCHAR ch-57
ENCODING 57
SWIDTH 1000 0
DWIDTH 16 0
BBX 16 16 0 -2
BITMAP
1000
33ff
2048
cbff
5a49
3249
23ff
4800
f9fe
2800
23ff
a820
a924
ab26
2623
20e0
ENDCHAR
STARTCHAR ch-58
ENCODING 58
SWIDTH 1000 0
DWIDTH 16 0
BBX 16 16 0 -2
BITMAP
1010
3210
23ff
c910
587e
3052
2052
4b7e
f952
2952
217e
a910
a9ff
ab10
2290
267f
ENDCHAR
STARTCHAR ch-59
ENCODING 59
SWIDTH 1000 0
DWIDTH 16 0
BBX 16 16 0 -2
BITMAP
0080
7fff
4208
5fbf
460c
4b1a
52a9
4200
4088
4510
4222
5fff
c041
8248
864c
1c47
ENDCHAR
STARTCHAR ch-61
ENCODING 61
SWIDTH 1000 0
DWIDTH 16 0
BBX 16 16 0 -2
BITMAP
1010
3020
61fe
c522
6dba
194a
31aa
6512
fd2a
1502
11fe
5410
555a
d54b
9145
123c
ENDCHAR
STARTCHAR ch-62
ENCODING 62
SWIDTH 1000 0
DWIDTH 16 0
BBX 16 16 0 -2
BITMAP
1010
31ff
6010
c4fe
6c10
19ff
3000
64fe
fe82
12fe
1082
54fe
5682
d2fe
9044
1183
ENDCHAR
STARTCHAR ch-65
ENCODING 65
SWIDTH 1000 0
DWIDTH 16 0
BBX 16 16 0 -2
BITMAP
2020
7fa0
c07f
3ec4
2a2c
ffa8
521c
7f36
0c63
0300
0c20
0242
ffff
0101
1918
710e
ENDCHAR
STARTCHAR ch-67
ENCODING 67
SWIDTH 1000 0
DWIDTH 16 0
BBX 16 16 0 -2
BITMAP
1020
3222
2222
cbfe
5800
33de
2252
4a52
fbde
2a52
2252
abde
aa52
aa52
22d2
2426
ENDCHAR
STARTCHAR ch-70
ENCODING 70
SWIDTH 1000 0
DWIDTH 16 0
BBX 16 16 0 -2
BITMAP
1000
33de
2042
c94a
58c6
314a
2022
4870
f9dc
2707
2020
a9c8
a832
a9c4
2018
21e0
ENDCHAR
STARTCHAR ch-74
ENCODING 74
SWIDTH 1000 0
DWIDTH 16 0
BBX 16 16 0 -2
BITMAP
1088
308a
23eb
c889
5888
37ff
2148
494a
fd5a
136a
114e
5944
554c
d1ed
9717
1032
ENDCHAR
STARTCHAR ch-75
ENCODING 75
SWIDTH 1000 0
DWIDTH 16 0
BBX 16 16 0 -2
BITMAP
083c
ffa4
0824
7f47
4980
7f7e
4922
7f14
0808
ffb7
0900
0620
0342
ffff
0911
710c
ENDCHAR
STARTCHAR ch-77
ENCODING 77
SWIDTH 1000 0
DWIDTH 16 0
BBX 16 16 0 -2
BITMAP
1010
30fe
6012
c5ff
6c12
18fe
3010
6555
fd55
1511
117d
5511
5539
d555
9111
1211
ENDCHAR
STARTCHAR ch-84
ENCODING 84
SWIDTH 1000 0
DWIDTH 16 0
BBX 16 16 0 -2
BITMAP
1088
308a
23eb
c809
5a28
3148
27ff
4808
fbea
262a
222e
abe4
aa24
aa25
23ef
201a
ENDCHAR
STARTCHAR ch-85
ENCODING 85
SWIDTH 1000 0
DWIDTH 16 0
BBX 16 16 0 -2
BITMAP
1082
3044
61ff
c410
6cfe
1810
31ff
6492
fc54
15ff
1000
54fe
5682
d282
9082
10fe
ENDCHAR
STARTCHAR ch-86
ENCODING 86
SWIDTH 1000 0
DWIDTH 16 0
BBX 16 16 0 -2
BITMAP
1248
3248
27e8
ca4f
5a5a
37f2
200a
4bca
fa4a
2bce
2244
abc4
aa4e
aa4a
224a
22db
ENDCHAR
STARTCHAR ch-89
ENCODING 89
SWIDTH 1000 0
DWIDTH 16 0
BBX 16 16 0 -2
BITMAP
101c
31f0
2222
c924
5bff
30a8
20ac
49a6
fb23
2800
21fe
a922
a9fe
a922
2122
21fe
ENDCHAR
STARTCHAR ch-90
ENCODING 90
SWIDTH 1000 0
DWIDTH 16 0
BBX 16 16 0 -2
BITMAP
1020
3020
23ff
c848
594a
3084
21fe
4a85
f8fc
2884
20fc
a820
a8a4
a9a6
2323
2060
ENDCHAR
STARTCHAR ch-93
ENCODING 93
SWIDTH 1000 0
DWIDTH 16 0
BBX 16 16 0 -2
BITMAP
1000
33de
2252
cbde
5a52
33de
2202
4afa
fa8a
2a8a
22fa
aa8a
aa8a
aafa
2202
2206
ENDCHAR
STARTCHAR ch-94
ENCODING 94
SWIDTH 1000 0
DWIDTH 16 0
BBX 16 16 0 -2
BITMAP
1020
30fc
2020
c9fe
5800
3084
23df
4884
f8e4
2b9f
2000
abff
a888
a889
2189
2307
ENDCHAR
STARTCHAR ch-102
ENCODING 102
SWIDTH 1000 0
DWIDTH 16 0
BBX 16 16 0 -2
BITMAP
1010
37b2
20a2
c8ff
5889
3388
223e
4a2a
fa2a
2baa
20be
a888
a88a
a88a
219f
2371
ENDCHAR
STARTCHAR ch-103
ENCODING 103
SWIDTH 1000 0
DWIDTH 16 0
BBX 16 16 0 -2
BITMAP
1000
33fe
2020
c7ff
5421
35ad
2421
49ac
f800
2bfe
2000
afff
a880
a984
213e
23e3
ENDCHAR
STARTCHAR ch-105
ENCODING 105
SWIDTH 1000 0
DWIDTH 16 0
BBX 16 16 0 -2
BITMAP
1000
33fe
2252
ca52
5bde
3050
2050
4bde
fa52
2a52
23de
aa52
aa52
abde
2041
203f
ENDCHAR
STARTCHAR ch-106
ENCODING 106
SWIDTH 1000 0
DWIDTH 16 0
BBX 16 16 0 -2
BITMAP
1020
3050
218c
c777
5000
33fe
2222
4aaa
fa22
2bfe
2000
a9fc
a904
a9fc
2104
21fc
ENDCHAR
STARTCHAR ch-109
ENCODING 109
SWIDTH 1000 0
DWIDTH 16 0
BBX 16 16 0 -2
BITMAP
0810
ffff
0810
0000
ffff
8911
9111
b57d
8955
9555
bf7d
8911
ad15
cb1d
8975
8103
ENDCHAR
STARTCHAR ch-112
ENCODING 112
SWIDTH 1000 0
DWIDTH 16 0
BBX 16 16 0 -2
BITMAP
107c
3044
6044
c47c
6c00
19ef
3129
6529
fdef
1410
51ff
5854
d454
90d6
1193
1010
ENDCHAR
STARTCHAR ch-121
ENCODING 121
SWIDTH 1000 0
DWIDTH 16 0
BBX 16 16 0 -2
BITMAP
1000
33fe
2292
cbfe
5820
33fe
2020
4fff
f904
2888
23fe
a820
a9fc
a820
2020
2020
ENDCHAR
STARTCHAR ch-123
ENCODING 123
SWIDTH 1000 0
DWIDTH 16 0
BBX 16 16 0 -2
BITMAP
1000
33fe
2020
c7ff
5421
35ad
2421
49ac
f800
2fff
2040
abfe
aa92
aa92
2292
2296
ENDCHAR
STARTCHAR ch-124
ENCODING 124
SWIDTH 1000 0
DWIDTH 16 0
BBX 16 16 0 -2
BITMAP
1044
3288
22aa
ca44
5aaa
32ee
2200
4bff
fa44
2a88
22aa
aa44
aaaa
aaee
2200
23ff
ENDCHAR
STARTCHAR ch-125
ENCODING 125
SWIDTH 1000 0
DWIDTH 16 0
BBX 16 16 0 -2
BITMAP
1020
33ff
2201
c9fe
58a4
332b
2030
49fe
fb02
29fe
2102
a9fe
a902
a9fe
2084
2303
ENDCHAR
STARTCHAR ch-127
ENCODING 127
SWIDTH 1000 0
DWIDTH 16 0
BBX 16 16 0 -2
BITMAP
1004
33e4
2284
ca8f
5be8
3220
23e0
4a8f
fa80
2be0
2000
a9fe
a952
a952
2152
23ff
ENDCHAR
STARTCHAR ch-130
ENCODING 130
SWIDTH 1000 0
DWIDTH 16 0
BBX 16 16 0 -2
BITMAP
2040
3f7f
4890
9ff8
1008
1ff8
1008
1ff8
1008
ffff
0910
364c
c293
3ff8
0910
710e
ENDCHAR
STARTCHAR ch-131
ENCODING 131
SWIDTH 1000 0
DWIDTH 16 0
BBX 16 16 0 -2
BITMAP
1020
3020
27ff
c050
57af
32aa
22aa
4dad
f800
2a02
23fe
aa02
abfe
aa02
2202
2402
ENDCHAR
STARTCHAR ch-136
ENCODING 136
SWIDTH 1000 0
DWIDTH 16 0
BBX 16 16 0 -2
BITMAP
1100
313f
2108
c7de
5112
3112
27de
4812
f812
2bde
2252
aa52
aa5e
abc0
2012
2021
ENDCHAR
STARTCHAR ch-137
ENCODING 137
SWIDTH 1000 0
DWIDTH 16 0
BBX 16 16 0 -2
BITMAP
1084
33df
2084
cbdf
5884
314a
2201
49fe
f902
29fe
2102
a9fe
a902
a9fe
2084
2303
ENDCHAR
STARTCHAR ch-140
ENCODING 140
SWIDTH 1000 0
DWIDTH 16 0
BBX 16 16 0 -2
BITMAP
1020
33ff
2020
c9fe
5800
33ff
2249
4bff
f902
29fe
2102
a9fe
a902
a9fe
2084
2303
ENDCHAR
STARTCHAR ch-142
ENCODING 142
SWIDTH 1000 0
DWIDTH 16 0
BBX 16 16 0 -2
BITMAP
1088
308a
23eb
c889
5888
37ff
2148
4b6a
f94a
2b6a
214e
ab64
a94c
a9ed
2717
2022
ENDCHAR
STARTCHAR ch-143
ENCODING 143
SWIDTH 1000 0
DWIDTH 16 0
BBX 16 16 0 -2
BITMAP
1010
33ff
2200
cafe
5a92
32fe
2292
4afe
fa10
23ff
2244
ab97
aa10
a2fe
2410
21ff
ENDCHAR
STARTCHAR ch-144
ENCODING 144
SWIDTH 1000 0
DWIDTH 16 0
BBX 16 16 0 -2
BITMAP
1100
313f
2108
c7de
5012
3292
245e
4a92
fa92
2b9e
2112
a912
ab9e
a280
26d2
2021
ENDCHAR
STARTCHAR ch-146
ENCODING 146
SWIDTH 1000 0
DWIDTH 16 0
BBX 16 16 0 -2
BITMAP
13ff
3200
22fe
ca92
5afe
3292
22fe
4a10
fafe
2a10
23ff
aaaa
ab11
aa7c
2410
21ff
ENDCHAR
STARTCHAR ch-147
ENCODING 147
SWIDTH 1000 0
DWIDTH 16 0
BBX 16 16 0 -2
BITMAP
1000
31ef
2129
c9ef
5929
31ef
2129
49ef
fcaa
1511
1020
55ff
5444
d4e8
903e
11e3
ENDCHAR
STARTCHAR ch-148
ENCODING 148
SWIDTH 1000 0
DWIDTH 16 0
BBX 16 16 0 -2
BITMAP
11f8
3610
23fe
ca02
5bfe
3110
21de
4911
fbcf
2800
23fe
aa22
abfe
a894
2191
270f
ENDCHAR
STARTCHAR ch-150
ENCODING 150
SWIDTH 1000 0
DWIDTH 16 0
BBX 16 16 0 -2
BITMAP
1228
322a
255b
c559
5008
37ff
2148
4b6a
f94a
2b6a
214e
ab64
a94c
a9ed
2717
2022
ENDCHAR
STARTCHAR ch-155
ENCODING 155
SWIDTH 1000 0
DWIDTH 16 0
BBX 16 16 0 -2
BITMAP
0100
3ffc
0100
1ff8
0100
ffff
0910
7ffe
1110
3ffc
a210
be24
a219
ff7f
4a2a
8949
ENDCHAR
STARTCHAR ch-156
ENCODING 156
SWIDTH 1000 0
DWIDTH 16 0
BBX 16 16 0 -2
BITMAP
13c8
328f
23d0
ca40
5bce
3280
23fe
4902
f9fe
2902
21fe
a902
a9fe
a849
20c9
2387
ENDCHAR
STARTCHAR ch-310
ENCODING 310
SWIDTH 1000 0
DWIDTH 16 0
BBX 16 16 0 -2
BITMAP
0800
0800
1ffc
3100
6100
0100
0100
ffff
0100
0100
2104
2104
2104
2104
2104
3ffc
ENDCHAR
STARTCHAR ch-312
ENCODING 312
SWIDTH 1000 0
DWIDTH 16 0
BBX 16 16 0 -2
BITMAP
2000
20fe
7e10
d010
1010
1010
ff10
1010
1010
5210
5210
5210
5210
7e10
01ff
0000
ENDCHAR
STARTCHAR ch-314
ENCODING 314
SWIDTH 1000 0
DWIDTH 16 0
BBX 16 16 0 -2
BITMAP
2020
2020
7c20
d1fc
1024
1024
fe24
1024
11ff
5450
5450
5458
54c8
7c8c
0186
0303
ENDCHAR
STARTCHAR ch-325
ENCODING 325
SWIDTH 1000 0
DWIDTH 16 0
BBX 16 16 0 -2
BITMAP
4020
403e
f820
a3ff
2221
223c
fae1
223f
2204
aa78
aa92
aa54
abff
fa10
0410
0070
ENDCHAR
STARTCHAR ch-332
ENCODING 332
SWIDTH 1000 0
DWIDTH 16 0
BBX 16 16 0 -2
BITMAP
0000
7e7e
4242
7e7e
4242
7e7e
4242
7e7e
2424
5242
1ffc
2100
ffff
0100
2104
3ffc
ENDCHAR
STARTCHAR ch-333
ENCODING 333
SWIDTH 1000 0
DWIDTH 16 0
BBX 16 16 0 -2
BITMAP
0ff0
0910
0ff0
0910
7ffe
5252
7e7e
5252
7e7e
1000
1ff8
2100
ffff
0100
2104
3ffc
ENDCHAR
STARTCHAR ch-334
ENCODING 334
SWIDTH 1000 0
DWIDTH 16 0
BBX 16 16 0 -2
BITMAP
41fc
4104
f9fc
a104
23fe
2020
ffff
2421
25ad
2020
a9fc
a800
abfe
f884
013c
03e6
ENDCHAR
STARTCHAR ch-336
ENCODING 336
SWIDTH 1000 0
DWIDTH 16 0
BBX 16 16 0 -2
BITMAP
4088
47ff
f888
a3de
2252
23de
f888
2090
21fe
ab10
adfe
a910
a9fe
f910
0110
01ff
ENDCHAR
STARTCHAR ch-337
ENCODING 337
SWIDTH 1000 0
DWIDTH 16 0
BBX 16 16 0 -2
BITMAP
0000
7ffe
4212
4212
4212
5292
4e72
4422
4422
4e72
4a5a
58ca
7182
4002
4002
400e
ENDCHAR
STARTCHAR ch-340
ENCODING 340
SWIDTH 1000 0
DWIDTH 16 0
BBX 16 16 0 -2
BITMAP
0000
7ffe
4422
4662
4242
5ffa
4102
4102
5ffa
4402
4402
4402
4602
43f2
4002
400e
ENDCHAR
STARTCHAR ch-341
ENCODING 341
SWIDTH 1000 0
DWIDTH 16 0
BBX 16 16 0 -2
BITMAP
0000
7ffe
4442
4442
0c40
387f
e000
0000
3ffc
0100
0100
ffff
0100
0100
0100
0100
ENDCHAR
STARTCHAR ch-344
ENCODING 344
SWIDTH 1000 0
DWIDTH 16 0
BBX 16 16 0 -2
BITMAP
0000
7ffe
4442
4442
7ffe
0000
0000
ffff
0100
0340
0760
0d30
391c
e107
0100
0100
ENDCHAR
STARTCHAR ch-351
ENCODING 351
SWIDTH 1000 0
DWIDTH 16 0
BBX 16 16 0 -2
BITMAP
0000
7ffe
4442
4442
7ffe
0000
0100
0100
ffff
0100
0100
1ff8
1008
1008
1008
1ff8
ENDCHAR
STARTCHAR ch-352
ENCODING 352
SWIDTH 1000 0
DWIDTH 16 0
BBX 16 16 0 -2
BITMAP
0000
7ffe
4442
4442
7ffe
0000
3ffc
2004
2004
3ffc
2080
3ffe
2040
2061
3e3b
e00e
ENDCHAR
STARTCHAR ch-359
ENCODING 359
SWIDTH 1000 0
DWIDTH 16 0
BBX 16 16 0 -2
BITMAP
0000
7ffe
4442
4442
7ffe
0000
0810
0810
feff
2854
2c54
2a54
6ad6
4892
c993
0810
ENDCHAR
STARTCHAR ch-360
ENCODING 360
SWIDTH 1000 0
DWIDTH 16 0
BBX 16 16 0 -2
BITMAP
7ffe
4442
4442
7ffe
0100
ffff
0420
0910
3ffc
d10b
1ff8
1108
1108
1ff9
0103
00fe
ENDCHAR
STARTCHAR ch-361
ENCODING 361
SWIDTH 1000 0
DWIDTH 16 0
BBX 16 16 0 -2
BITMAP
7ffe
4442
4442
7ffe
0100
01fc
0100
1ff8
1008
1ff8
1008
1ff8
0100
ffff
0100
0100
ENDCHAR
STARTCHAR ch-362
ENCODING 362
SWIDTH 1000 0
DWIDTH 16 0
BBX 16 16 0 -2
BITMAP
0000
7ffe
4442
4442
7ffe
0000
0420
7c3e
0420
7c3e
0420
3c20
e43f
0c20
1820
7020
ENDCHAR
STARTCHAR ch-363
ENCODING 363
SWIDTH 1000 0
DWIDTH 16 0
BBX 16 16 0 -2
BITMAP
7ffe
4442
4442
7ffe
0000
0408
7fc8
0408
0408
ffee
000b
0409
7fc8
0408
07e8
fc08
ENDCHAR
STARTCHAR ch-366
ENCODING 366
SWIDTH 1000 0
DWIDTH 16 0
BBX 16 16 0 -2
BITMAP
0000
7ffe
4442
7ffe
0080
ffff
0080
0ff8
4808
4ff8
4808
4ff8
4808
4ff8
4000
7fff
ENDCHAR
STARTCHAR ch-368
ENCODING 368
SWIDTH 1000 0
DWIDTH 16 0
BBX 16 16 0 -2
BITMAP
7ffe
4442
4442
7ffe
0000
7e02
0022
ff22
0022
7e22
0022
7e22
0002
7e02
4202
7e0e
ENDCHAR
STARTCHAR ch-370
ENCODING 370
SWIDTH 1000 0
DWIDTH 16 0
BBX 16 16 0 -2
BITMAP
0000
7ffe
4442
4442
7ffe
0104
3ffc
0110
ffff
0080
0ffc
f804
0ffc
0804
0804
0ffc
ENDCHAR
STARTCHAR ch-373
ENCODING 373
SWIDTH 1000 0
DWIDTH 16 0
BBX 16 16 0 -2
BITMAP
7ffe
4442
4442
7ffe
0000
3ffe
2080
3ffc
2080
3ffc
2080
3fff
0001
4921
cdb3
8496
ENDCHAR
STARTCHAR ch-375
ENCODING 375
SWIDTH 1000 0
DWIDTH 16 0
BBX 16 16 0 -2
BITMAP
7ffe
4442
4442
7ffe
1000
2226
ff3c
0120
7e21
421f
7e00
4226
7e3c
4220
4221
461f
ENDCHAR
STARTCHAR ch-376
ENCODING 376
SWIDTH 1000 0
DWIDTH 16 0
BBX 16 16 0 -2
BITMAP
7ffe
4442
4442
7ffe
0000
7e04
0004
ff7f
0004
7e44
0064
7e24
0004
7e04
4204
7e1c
ENDCHAR
STARTCHAR ch-377
ENCODING 377
SWIDTH 1000 0
DWIDTH 16 0
BBX 16 16 0 -2
BITMAP
0000
7ffe
4442
4442
7ffe
1088
1110
5bff
5510
d1fe
9110
1110
11fe
1110
1110
11ff
ENDCHAR
STARTCHAR ch-386
ENCODING 386
SWIDTH 1000 0
DWIDTH 16 0
BBX 16 16 0 -2
BITMAP
7ffe
4442
4442
7ffe
1000
20fe
c482
68fe
1000
24fe
fe82
12fe
5482
d6fe
9282
1086
ENDCHAR
STARTCHAR ch-387
ENCODING 387
SWIDTH 1000 0
DWIDTH 16 0
BBX 16 16 0 -2
BITMAP
7ffe
4442
7ffe
0000
0420
ffff
1008
1ff8
1008
1ff8
0200
ffff
0910
3ffc
d10b
1118
ENDCHAR
STARTCHAR ch-389
ENCODING 389
SWIDTH 1000 0
DWIDTH 16 0
BBX 16 16 0 -2
BITMAP
7ffe
4442
4442
7ffe
1024
2048
c4ff
6b88
1088
24fe
fa88
1088
54fe
d488
9488
10ff
ENDCHAR
STARTCHAR ch-390
ENCODING 390
SWIDTH 1000 0
DWIDTH 16 0
BBX 16 16 0 -2
BITMAP
7ffe
4442
7ffe
2000
424c
ff78
4242
7e3e
4240
7e78
4242
463e
0000
2444
6666
c223
ENDCHAR
STARTCHAR ch-391
ENCODING 391
SWIDTH 1000 0
DWIDTH 16 0
BBX 16 16 0 -2
BITMAP
7ffe
4442
7ffe
0000
4410
fefe
4428
7c44
1000
feff
9202
fe7a
104a
fe7a
1002
100e
ENDCHAR
STARTCHAR ch-392
ENCODING 392
SWIDTH 1000 0
DWIDTH 16 0
BBX 16 16 0 -2
BITMAP
7ffe
4442
7ffe
0000
4400
feff
4488
7cfe
1088
fefe
9288
feff
1001
fe55
1155
1103
ENDCHAR
STARTCHAR ch-394
ENCODING 394
SWIDTH 1000 0
DWIDTH 16 0
BBX 16 16 0 -2
BITMAP
1008
1818
0810
7ffe
0100
0100
0100
3ffc
0100
0100
0100
ffff
0100
0100
0100
0100
ENDCHAR
STARTCHAR ch-396
ENCODING 396
SWIDTH 1000 0
DWIDTH 16 0
BBX 16 16 0 -2
BITMAP
0810
0c30
0420
7ffe
0100
3ffc
0100
0100
ffff
0420
0420
0420
0c20
1821
3033
e01e
ENDCHAR
STARTCHAR ch-398
ENCODING 398
SWIDTH 1000 0
DWIDTH 16 0
BBX 16 16 0 -2
BITMAP
0810
0420
7ffe
0100
0100
3ffc
0100
0100
7ffe
0000
0100
ffff
0240
0660
1c38
f00f
ENDCHAR
STARTCHAR ch-404
ENCODING 404
SWIDTH 1000 0
DWIDTH 16 0
BBX 16 16 0 -2
BITMAP
0810
0c30
0420
7ffe
0100
0100
3ffc
0100
0100
0100
ffff
0000
0000
2444
6666
c223
ENDCHAR
STARTCHAR ch-410
ENCODING 410
SWIDTH 1000 0
DWIDTH 16 0
BBX 16 16 0 -2
BITMAP
4410
6c38
2828
fe6c
10c6
11bb
7c00
1000
10fe
1e22
f022
1022
302e
2020
6020
c020
ENDCHAR
STARTCHAR ch-413
ENCODING 413
SWIDTH 1000 0
DWIDTH 16 0
BBX 16 16 0 -2
BITMAP
4403
6c0e
28f8
fe88
1088
1088
7cff
1088
1088
1e88
f088
10ec
3384
2005
63f7
c002
ENDCHAR
STARTCHAR ch-414
ENCODING 414
SWIDTH 1000 0
DWIDTH 16 0
BBX 16 16 0 -2
BITMAP
0810
0420
7ffe
0100
3ffc
0100
ffff
1000
17f8
1108
3108
2ffe
6108
c108
0108
3fff
ENDCHAR
STARTCHAR ch-419
ENCODING 419
SWIDTH 1000 0
DWIDTH 16 0
BBX 16 16 0 -2
BITMAP
3ff8
0208
ffff
0408
3ff8
0800
3ffc
e804
0ffc
0440
3ffc
0100
1ff8
0100
ffff
0100
ENDCHAR
STARTCHAR ch-420
ENCODING 420
SWIDTH 1000 0
DWIDTH 16 0
BBX 16 16 0 -2
BITMAP
0041
7e63
1222
127f
ff08
1208
1208
7e3e
2008
2008
7e08
a27f
2208
2208
2208
3e08
ENDCHAR
STARTCHAR ch-424
ENCODING 424
SWIDTH 1000 0
DWIDTH 16 0
BBX 16 16 0 -2
BITMAP
0820
0440
7ffe
0100
3ffc
0100
ffff
0080
60fe
31a2
c324
6870
1850
30d8
618c
c707
ENDCHAR
STARTCHAR ch-425
ENCODING 425
SWIDTH 1000 0
DWIDTH 16 0
BBX 16 16 0 -2
BITMAP
0810
0420
7ffe
0100
3ffc
0100
ffff
0008
7e44
0840
ffff
0844
0f28
f811
086d
3987
ENDCHAR
STARTCHAR ch-430
ENCODING 430
SWIDTH 1000 0
DWIDTH 16 0
BBX 16 16 0 -2
BITMAP
0810
0420
7ffe
0100
3ffc
0100
ffff
2444
4002
1ff8
0100
3ffc
0100
ffff
0660
781e
ENDCHAR
STARTCHAR ch-431
ENCODING 431
SWIDTH 1000 0
DWIDTH 16 0
BBX 16 16 0 -2
BITMAP
4400
6cfc
2884
fefc
1084
1084
7cfc
1040
107f
1ec1
f099
11f1
3081
208b
607a
c006
ENDCHAR
STARTCHAR ch-434
ENCODING 434
SWIDTH 1000 0
DWIDTH 16 0
BBX 16 16 0 -2
BITMAP
0420
7ffe
0100
3ffc
0100
ffff
0000
7e48
0844
ffff
2a40
7d64
9028
1c11
0429
3cc7
ENDCHAR
STARTCHAR ch-438
ENCODING 438
SWIDTH 1000 0
DWIDTH 16 0
BBX 16 16 0 -2
BITMAP
8820
dbff
5000
f9fe
2102
217a
f94a
217a
2102
39fe
e084
20fc
2084
60fc
4084
c3ff
ENDCHAR
STARTCHAR ch-440
ENCODING 440
SWIDTH 1000 0
DWIDTH 16 0
BBX 16 16 0 -2
BITMAP
0100
ffff
1000
1ffc
0000
1ff8
1008
1ff8
0280
793c
4ba4
7934
4bac
7925
4ba5
9947
ENDCHAR
STARTCHAR ch-441
ENCODING 441
SWIDTH 1000 0
DWIDTH 16 0
BBX 16 16 0 -2
BITMAP
0420
7ffe
0100
3ffc
0100
ffff
2244
c813
0420
7ffe
0100
3ffc
0100
ffff
0660
781e
ENDCHAR
STARTCHAR ch-445
ENCODING 445
SWIDTH 1000 0
DWIDTH 16 0
BBX 16 16 0 -2
BITMAP
0000
fefe
0202
0202
6262
3232
1212
0202
0e0e
1a1a
3232
6262
c2c2
0202
0202
0e0e
ENDCHAR
STARTCHAR ch-449
ENCODING 449
SWIDTH 1000 0
DWIDTH 16 0
BBX 16 16 0 -2
BITMAP
0420
0c30
3a1c
e607
0410
0ff8
380c
0000
fefe
2222
1212
0e0e
3a3a
e2e2
0202
0e0e
ENDCHAR
STARTCHAR ch-453
ENCODING 453
SWIDTH 1000 0
DWIDTH 16 0
BBX 16 16 0 -2
BITMAP
1000
13de
1042
fe52
115a
10ca
fc42
4442
4442
6dce
2b5a
3842
1042
38c6
6e00
c3ff
ENDCHAR
STARTCHAR ch-454
ENCODING 454
SWIDTH 1000 0
DWIDTH 16 0
BBX 16 16 0 -2
BITMAP
0000
fefe
4242
2626
1a1a
e262
0100
7fe0
0220
0c22
781e
0100
ffff
0100
0100
0100
ENDCHAR
STARTCHAR ch-458
ENCODING 458
SWIDTH 1000 0
DWIDTH 16 0
BBX 16 16 0 -2
BITMAP
2000
23de
2042
f842
0252
4b5a
494a
4842
5842
5042
11ce
135a
3842
e042
0042
01ce
ENDCHAR
STARTCHAR ch-460
ENCODING 460
SWIDTH 1000 0
DWIDTH 16 0
BBX 16 16 0 -2
BITMAP
0000
7e7e
2222
1212
0606
0a0a
3232
0080
0080
3ffc
0810
0c30
0420
0420
ffff
0000
ENDCHAR
STARTCHAR ch-466
ENCODING 466
SWIDTH 1000 0
DWIDTH 16 0
BBX 16 16 0 -2
BITMAP
0000
fefe
4242
6262
2226
0e1a
3262
c102
0200
3ffc
2004
2004
3ffc
2004
2004
3ffc
ENDCHAR
STARTCHAR ch-468
ENCODING 468
SWIDTH 1000 0
DWIDTH 16 0
BBX 16 16 0 -2
BITMAP
4400
6def
2821
fe21
1129
11ad
7ca5
1021
1021
1e21
f0e7
11ad
3021
2021
6021
c0e7
ENDCHAR
STARTCHAR ch-469
ENCODING 469
SWIDTH 1000 0
DWIDTH 16 0
BBX 16 16 0 -2
BITMAP
0100
07c0
1c78
f00f
0ff0
0000
1ff8
1008
1ff8
0000
fefe
0202
6666
1a1a
6262
0e0e
ENDCHAR
STARTCHAR ch-480
ENCODING 480
SWIDTH 1000 0
DWIDTH 16 0
BBX 16 16 0 -2
BITMAP
0000
fefe
4242
2626
1a1a
e262
0100
7ffe
0810
1428
6246
0100
ffff
0100
0100
0100
ENDCHAR
STARTCHAR ch-481
ENCODING 481
SWIDTH 1000 0
DWIDTH 16 0
BBX 16 16 0 -2
BITMAP
0420
fc3f
0420
7c3e
0420
fc3f
0820
1020
fefe
2222
1212
0e0e
3a3a
e2e2
0202
0e0e
ENDCHAR
STARTCHAR ch-486
ENCODING 486
SWIDTH 1000 0
DWIDTH 16 0
BBX 16 16 0 -2
BITMAP
0420
ffff
0000
3e44
2244
3e44
2244
3e04
221c
0000
fefe
0202
6666
1a1a
6262
0e0e
ENDCHAR
STARTCHAR ch-489
ENCODING 489
SWIDTH 1000 0
DWIDTH 16 0
BBX 16 16 0 -2
BITMAP
0000
ff77
0011
7e11
4255
4233
7e11
4011
7f11
5533
5555
7f11
d511
5511
5511
4333
ENDCHAR
STARTCHAR ch-491
ENCODING 491
SWIDTH 1000 0
DWIDTH 16 0
BBX 16 16 0 -2
BITMAP
0000
f7be
1080
9480
5280
1080
52ff
8494
1014
7f14
4114
4114
7f14
4135
4125
7f63
ENDCHAR
STARTCHAR ch-496
ENCODING 496
SWIDTH 1000 0
DWIDTH 16 0
BBX 16 16 0 -2
BITMAP
2020
2070
f8d8
218c
ff07
8800
8bde
f842
8a52
894a
f842
20c6
f94a
2252
2042
21ce
ENDCHAR
STARTCHAR ch-499
ENCODING 499
SWIDTH 1000 0
DWIDTH 16 0
BBX 16 16 0 -2
BITMAP
0000
7fbc
5024
5f27
6440
5f3e
4a12
510c
7fb3
0000
fefe
0202
6666
1a1a
6262
0e0e
ENDCHAR
STARTCHAR ch-505
ENCODING 505
SWIDTH 1000 0
DWIDTH 16 0
BBX 16 16 0 -2
BITMAP
1000
7cee
1022
fe22
00aa
4466
ee22
4422
6466
ceaa
0022
fe22
2466
2401
6603
c3fe
ENDCHAR
STARTCHAR ch-507
ENCODING 507
SWIDTH 1000 0
DWIDTH 16 0
BBX 16 16 0 -2
BITMAP
0400
1def
7021
9221
54a9
fe65
3821
5421
9221
0063
7ca5
5529
7c21
5421
5421
7ce7
ENDCHAR
STARTCHAR ch-508
ENCODING 508
SWIDTH 1000 0
DWIDTH 16 0
BBX 16 16 0 -2
BITMAP
fefe
2222
1e1e
7272
0000
3ffc
2104
3ffc
2104
3ffc
0420
7ffe
0420
ffff
1008
6006
ENDCHAR
ENDFONT
